<svg width="25" height="25" viewBox="0 0 25 25" fill="none" xmlns="http://www.w3.org/2000/svg">
<path d="M7.03125 22.6562C6.82405 22.6562 6.62534 22.5739 6.47882 22.4274C6.33231 22.2809 6.25 22.0822 6.25 21.875V18.75H5.07812C4.14604 18.749 3.25243 18.3782 2.59334 17.7192C1.93426 17.0601 1.56353 16.1665 1.5625 15.2344V5.85938C1.56353 4.92729 1.93426 4.03368 2.59334 3.37459C3.25243 2.71551 4.14604 2.34478 5.07812 2.34375H19.9219C20.854 2.34478 21.7476 2.71551 22.4067 3.37459C23.0657 4.03368 23.4365 4.92729 23.4375 5.85938V15.2344C23.4365 16.1665 23.0657 17.0601 22.4067 17.7192C21.7476 18.3782 20.854 18.749 19.9219 18.75H11.999L7.53174 22.4751C7.39115 22.592 7.2141 22.6561 7.03125 22.6562Z" fill="white"/>
</svg>
