<svg width="25" height="25" viewBox="0 0 25 25" fill="none" xmlns="http://www.w3.org/2000/svg">
<path d="M22.23 1.5625H2.77002C2.44981 1.56263 2.14274 1.68989 1.91632 1.91632C1.68989 2.14274 1.56263 2.44981 1.5625 2.77002V22.23C1.56263 22.5502 1.68989 22.8573 1.91632 23.0837C2.14274 23.3101 2.44981 23.4374 2.77002 23.4375H12.5V14.8438H9.88525V11.7188H12.5V9.22852C12.5 6.40332 14.4595 4.86523 16.9834 4.86523C18.1909 4.86523 19.4897 4.95605 19.7915 4.99609V7.94678H17.7808C16.4077 7.94678 16.146 8.59619 16.146 9.55322V11.7188H19.4175L18.9902 14.8438H16.146V23.4375H22.23C22.5502 23.4374 22.8573 23.3101 23.0837 23.0837C23.3101 22.8573 23.4374 22.5502 23.4375 22.23V2.77002C23.4374 2.44981 23.3101 2.14274 23.0837 1.91632C22.8573 1.68989 22.5502 1.56263 22.23 1.5625Z" fill="white"/>
</svg>
