<svg width="25" height="25" viewBox="0 0 25 25" fill="none" xmlns="http://www.w3.org/2000/svg">
  <path d="M12.5 21.875C12.1864 21.8746 11.8801 21.7798 11.6211 21.603C7.78368 18.998 6.12206 17.2119 5.20556 16.0952C3.25243 13.7148 2.31738 11.271 2.34374 8.62451C2.3745 5.5918 4.80761 3.125 7.76757 3.125C9.91991 3.125 11.4106 4.3374 12.2788 5.34717C12.3063 5.37883 12.3403 5.40422 12.3784 5.42162C12.4166 5.43902 12.4581 5.44803 12.5 5.44803C12.5419 5.44803 12.5834 5.43902 12.6215 5.42162C12.6597 5.40422 12.6937 5.37883 12.7212 5.34717C13.5893 4.33643 15.0801 3.125 17.2324 3.125C20.1924 3.125 22.6255 5.5918 22.6562 8.625C22.6826 11.272 21.7466 13.7158 19.7944 16.0957C18.8779 17.2124 17.2163 18.9985 13.3789 21.6035C13.1198 21.7802 12.8136 21.8747 12.5 21.875Z" fill="url(#paint0_linear_22_188)"/>
  <defs>
  <linearGradient id="paint0_linear_22_188" x1="12.5" y1="3.125" x2="12.5" y2="21.875" gradientUnits="userSpaceOnUse">
  <stop stop-color="#FF6079"/>
  <stop offset="1" stop-color="#FE3051"/>
  </linearGradient>
  </defs>
</svg>
