<svg width="25" height="25" viewBox="0 0 25 25" fill="none" xmlns="http://www.w3.org/2000/svg">
<path d="M17.0571 3.38525C18.2648 3.38886 19.4219 3.87019 20.2759 4.72413C21.1298 5.57807 21.6111 6.73523 21.6147 7.94287V17.0571C21.6111 18.2648 21.1298 19.4219 20.2759 20.2759C19.4219 21.1298 18.2648 21.6111 17.0571 21.6147H7.94287C6.73523 21.6111 5.57807 21.1298 4.72413 20.2759C3.87019 19.4219 3.38886 18.2648 3.38525 17.0571V7.94287C3.38886 6.73523 3.87019 5.57807 4.72413 4.72413C5.57807 3.87019 6.73523 3.38886 7.94287 3.38525H17.0571ZM17.0571 1.5625H7.94287C4.43359 1.5625 1.5625 4.43359 1.5625 7.94287V17.0571C1.5625 20.5664 4.43359 23.4375 7.94287 23.4375H17.0571C20.5664 23.4375 23.4375 20.5664 23.4375 17.0571V7.94287C23.4375 4.43359 20.5664 1.5625 17.0571 1.5625Z" fill="white"/>
<path d="M18.4243 7.94287C18.1539 7.94287 17.8896 7.86269 17.6647 7.71246C17.4399 7.56223 17.2647 7.3487 17.1612 7.09888C17.0577 6.84906 17.0306 6.57417 17.0834 6.30896C17.1362 6.04375 17.2664 5.80014 17.4576 5.60894C17.6488 5.41773 17.8924 5.28752 18.1576 5.23477C18.4228 5.18201 18.6977 5.20909 18.9475 5.31257C19.1973 5.41605 19.4109 5.59128 19.5611 5.81612C19.7113 6.04095 19.7915 6.30528 19.7915 6.57568C19.7919 6.75533 19.7568 6.93329 19.6882 7.09934C19.6197 7.26539 19.519 7.41626 19.3919 7.54329C19.2649 7.67032 19.114 7.77101 18.948 7.83959C18.7819 7.90816 18.604 7.94326 18.4243 7.94287Z" fill="white"/>
<path d="M12.5 8.854C13.2211 8.854 13.926 9.06784 14.5256 9.46847C15.1252 9.86909 15.5925 10.4385 15.8685 11.1047C16.1444 11.771 16.2166 12.504 16.0759 13.2113C15.9353 13.9186 15.588 14.5682 15.0781 15.0781C14.5682 15.588 13.9185 15.9353 13.2113 16.0759C12.504 16.2166 11.771 16.1444 11.1047 15.8685C10.4385 15.5925 9.86909 15.1252 9.46847 14.5256C9.06784 13.926 8.854 13.2211 8.854 12.5C8.85504 11.5333 9.2395 10.6066 9.92303 9.92303C10.6066 9.2395 11.5333 8.85504 12.5 8.854ZM12.5 7.03125C11.4184 7.03125 10.3611 7.35199 9.46173 7.9529C8.5624 8.55381 7.86145 9.40792 7.44754 10.4072C7.03362 11.4065 6.92532 12.5061 7.13633 13.5669C7.34735 14.6277 7.86819 15.6022 8.63301 16.367C9.39783 17.1318 10.3723 17.6527 11.4331 17.8637C12.4939 18.0747 13.5935 17.9664 14.5928 17.5525C15.5921 17.1386 16.4462 16.4376 17.0471 15.5383C17.648 14.6389 17.9687 13.5816 17.9687 12.5C17.9687 11.0496 17.3926 9.6586 16.367 8.63301C15.3414 7.60742 13.9504 7.03125 12.5 7.03125Z" fill="white"/>
</svg>
