<svg width="25" height="25" viewBox="0 0 25 25" fill="none" xmlns="http://www.w3.org/2000/svg">
<path d="M18.75 16.4062C18.3291 16.4061 17.9125 16.4912 17.5255 16.6565C17.1384 16.8219 16.7889 17.0639 16.498 17.3681L9.27148 13.3022C9.41146 12.7765 9.41146 12.2234 9.27148 11.6977L16.498 7.6318C17.0243 8.17738 17.7314 8.51237 18.4868 8.57403C19.2423 8.63568 19.9944 8.41977 20.6021 7.96673C21.2098 7.51369 21.6315 6.85462 21.7882 6.11298C21.9449 5.37135 21.8258 4.59803 21.4532 3.93791C21.0806 3.27779 20.4801 2.77616 19.7642 2.527C19.0484 2.27783 18.2662 2.29823 17.5643 2.58436C16.8624 2.8705 16.2888 3.40274 15.9512 4.08138C15.6135 4.76002 15.5349 5.5385 15.73 6.27096L8.50341 10.3369C8.07174 9.8868 7.51529 9.57616 6.90563 9.44494C6.29597 9.31371 5.66098 9.36789 5.08237 9.60051C4.50375 9.83314 4.00797 10.2336 3.6588 10.7503C3.30963 11.267 3.12305 11.8763 3.12305 12.5C3.12305 13.1236 3.30963 13.733 3.6588 14.2497C4.00797 14.7664 4.50375 15.1668 5.08237 15.3994C5.66098 15.632 6.29597 15.6862 6.90563 15.555C7.51529 15.4238 8.07174 15.1131 8.50341 14.6631L15.73 18.729C15.5624 19.3598 15.5966 20.0272 15.8276 20.6376C16.0587 21.248 16.4751 21.7707 17.0184 22.1324C17.5616 22.4941 18.2045 22.6767 18.8568 22.6544C19.5091 22.6321 20.1381 22.4062 20.6554 22.0083C21.1728 21.6104 21.5525 21.0605 21.7415 20.4358C21.9304 19.811 21.9189 19.1428 21.7088 18.5249C21.4986 17.907 21.1003 17.3704 20.5696 16.9904C20.039 16.6105 19.4027 16.4062 18.75 16.4062Z" fill="white"/>
</svg>
